/* XPM */
static char * C:\EntropyCoin\share\pixmaps\bitcoin32_xpm[] = {
"32 32 458 2",
"  	c None",
". 	c #9D9D9D",
"+ 	c #A0A0A0",
"@ 	c #A1A1A1",
"# 	c #B7B7B7",
"$ 	c #CFCFCF",
"% 	c #DBDBDB",
"& 	c #E0E0E0",
"* 	c #E0DFDD",
"= 	c #E1E0DF",
"- 	c #DFDFE0",
"; 	c #DADADA",
"> 	c #CBCBCB",
", 	c #B3B3B3",
"' 	c #9E9E9E",
") 	c #A7A7A7",
"! 	c #E4E4E4",
"~ 	c #D1D1D2",
"{ 	c #ADADAD",
"] 	c #8A8B8B",
"^ 	c #737370",
"/ 	c #747989",
"( 	c #707278",
"_ 	c #797978",
": 	c #939394",
"< 	c #B7B8B8",
"[ 	c #C8C8C8",
"} 	c #A2A2A2",
"| 	c #999999",
"1 	c #C5C5C5",
"2 	c #E5E5E5",
"3 	c #B5B6B6",
"4 	c #727374",
"5 	c #474849",
"6 	c #37383A",
"7 	c #2F2E2F",
"8 	c #41455A",
"9 	c #A4B3E4",
"0 	c #818DB1",
"a 	c #2E2E35",
"b 	c #333435",
"c 	c #3A3B3C",
"d 	c #515253",
"e 	c #838484",
"f 	c #C9C9C9",
"g 	c #E6E6E6",
"h 	c #BBBBBB",
"i 	c #DADAD9",
"j 	c #D3D3D3",
"k 	c #393A3B",
"l 	c #343637",
"m 	c #393A3C",
"n 	c #363633",
"o 	c #4A4E62",
"p 	c #94A4DC",
"q 	c #5F657E",
"r 	c #94A0C7",
"s 	c #838EBF",
"t 	c #383740",
"u 	c #3A3A3C",
"v 	c #38393B",
"w 	c #343536",
"x 	c #424344",
"y 	c #8E8F8F",
"z 	c #E3E3E3",
"A 	c #9B9B9B",
"B 	c #BABABA",
"C 	c #4D4E4F",
"D 	c #3A3B3D",
"E 	c #3C3D3D",
"F 	c #3D3D3B",
"G 	c #51586B",
"H 	c #9BACE2",
"I 	c #575E73",
"J 	c #35332D",
"K 	c #383A3B",
"L 	c #7885AE",
"M 	c #7888B9",
"N 	c #404347",
"O 	c #3E3F3D",
"P 	c #3C3D3E",
"Q 	c #656667",
"R 	c #D5D5D5",
"S 	c #D6D6D6",
"T 	c #DDDDDD",
"U 	c #B5B5B6",
"V 	c #404142",
"W 	c #373839",
"X 	c #3B3C3D",
"Y 	c #3F403F",
"Z 	c #424340",
"` 	c #505E8A",
" .	c #4C546D",
"..	c #2B2B29",
"+.	c #313233",
"@.	c #303130",
"#.	c #2D2E2C",
"$.	c #4D597F",
"%.	c #3A435E",
"&.	c #3B3B36",
"*.	c #424341",
"=.	c #3E3F3F",
"-.	c #343537",
";.	c #565758",
">.	c #D0D0D0",
",.	c #CDCDCD",
"'.	c #CCCBCC",
").	c #414240",
"!.	c #3F3F3E",
"~.	c #353637",
"{.	c #2B2B28",
"].	c #272826",
"^.	c #2B2B2D",
"/.	c #2A2B2C",
"(.	c #2C2C29",
"_.	c #4D4D4C",
":.	c #49494B",
"<.	c #363737",
"[.	c #404140",
"}.	c #656666",
"|.	c #BEBEBE",
"1.	c #AFAFAF",
"2.	c #646565",
"3.	c #3C3D3C",
"4.	c #313334",
"5.	c #2E2F31",
"6.	c #2C2D2E",
"7.	c #292A2B",
"8.	c #262627",
"9.	c #252526",
"0.	c #242425",
"a.	c #222223",
"b.	c #3F3F40",
"c.	c #F3F2F2",
"d.	c #272829",
"e.	c #40413F",
"f.	c #8D8E8F",
"g.	c #E7E7E7",
"h.	c #A4A4A4",
"i.	c #3D3E3D",
"j.	c #2D2E30",
"k.	c #232425",
"l.	c #3B3B3B",
"m.	c #BDBDBD",
"n.	c #C3C3C2",
"o.	c #FFFFFF",
"p.	c #727273",
"q.	c #28292B",
"r.	c #424345",
"s.	c #CCCCCC",
"t.	c #59595A",
"u.	c #3D3E3E",
"v.	c #41413F",
"w.	c #2E2F30",
"x.	c #2A2A2B",
"y.	c #272728",
"z.	c #1A1A1B",
"A.	c #636464",
"B.	c #242526",
"C.	c #38393A",
"D.	c #434341",
"E.	c #3D3E3F",
"F.	c #343438",
"G.	c #828283",
"H.	c #BABBBB",
"I.	c #3F3F3B",
"J.	c #3A3A38",
"K.	c #2F3132",
"L.	c #2B2C2D",
"M.	c #282829",
"N.	c #141415",
"O.	c #7C7C7C",
"P.	c #B6B6B6",
"Q.	c #3A3A3B",
"R.	c #262728",
"S.	c #2E3031",
"T.	c #333436",
"U.	c #3E3E39",
"V.	c #3F3F3D",
"W.	c #515156",
"X.	c #B9B9B9",
"Y.	c #898A8A",
"Z.	c #393934",
"`.	c #474F66",
" +	c #394053",
".+	c #2D2D2B",
"++	c #29292A",
"@+	c #1E1E1F",
"#+	c #111112",
"$+	c #A6A6A6",
"%+	c #FEFEFE",
"&+	c #474747",
"*+	c #010101",
"=+	c #0D0D0D",
"-+	c #101010",
";+	c #19191A",
">+	c #212122",
",+	c #30302E",
"'+	c #424C6B",
")+	c #43474F",
"!+	c #3A3B39",
"~+	c #3A3941",
"{+	c #B6B6B7",
"]+	c #D1D1D1",
"^+	c #A3A3A3",
"/+	c #31312E",
"(+	c #4C5262",
"_+	c #7F92CF",
":+	c #363B49",
"<+	c #2B2B2A",
"[+	c #1A1A1A",
"}+	c #EAEAEA",
"|+	c #1D1D1D",
"1+	c #000000",
"2+	c #040404",
"3+	c #090909",
"4+	c #0E0E0E",
"5+	c #202021",
"6+	c #4B5576",
"7+	c #8091C7",
"8+	c #3C3E42",
"9+	c #333332",
"0+	c #919192",
"a+	c #DFDFDF",
"b+	c #4D4D4A",
"c+	c #454A5A",
"d+	c #9DADE2",
"e+	c #4F566B",
"f+	c #2A2C2D",
"g+	c #151515",
"h+	c #2F2F2E",
"i+	c #EDEDED",
"j+	c #2F2F2F",
"k+	c #2C2C2C",
"l+	c #303030",
"m+	c #333333",
"n+	c #363636",
"o+	c #1D1D1E",
"p+	c #232324",
"q+	c #2E2E2B",
"r+	c #707B9E",
"s+	c #8F9DCB",
"t+	c #313439",
"u+	c #777775",
"v+	c #D4D4D2",
"w+	c #5A6175",
"x+	c #AAB7E2",
"y+	c #666E85",
"z+	c #323033",
"A+	c #302F36",
"B+	c #2A2B2B",
"C+	c #252525",
"D+	c #0F0F10",
"E+	c #505050",
"F+	c #F9F9F9",
"G+	c #F3F3F3",
"H+	c #F5F5F5",
"I+	c #F4F4F4",
"J+	c #D8D8D8",
"K+	c #232223",
"L+	c #28292A",
"M+	c #333334",
"N+	c #363736",
"O+	c #8A94B6",
"P+	c #8F9CC3",
"Q+	c #70737D",
"R+	c #E4E3E2",
"S+	c #D3D3D0",
"T+	c #636C86",
"U+	c #A5B4E3",
"V+	c #474B57",
"W+	c #34342F",
"X+	c #2F3031",
"Y+	c #0D0D0E",
"Z+	c #7A7A7A",
"`+	c #C6C6C6",
" @	c #1B1B1C",
".@	c #35342E",
"+@	c #666E87",
"@@	c #9AA9D8",
"#@	c #727784",
"$@	c #E3E3E1",
"%@	c #B0B0B0",
"&@	c #4A4A47",
"*@	c #515972",
"=@	c #96A7DC",
"-@	c #474C5A",
";@	c #2C2C2A",
">@	c #1F1F20",
",@	c #111111",
"'@	c #797979",
")@	c #4E4E4E",
"!@	c #545454",
"~@	c #555555",
"{@	c #595959",
"]@	c #424242",
"^@	c #161616",
"/@	c #2E2E2C",
"(@	c #636C88",
"_@	c #91A1D6",
":@	c #393E49",
"<@	c #72726F",
"[@	c #DFDEDF",
"}@	c #5E5F5F",
"|@	c #30302D",
"1@	c #5B6379",
"2@	c #95A7E0",
"3@	c #383E4B",
"4@	c #CDCDCE",
"5@	c #F0F0F0",
"6@	c #232323",
"7@	c #020202",
"8@	c #070707",
"9@	c #0F0F0F",
"0@	c #535C7A",
"a@	c #97A8DD",
"b@	c #444852",
"c@	c #31312F",
"d@	c #888889",
"e@	c #E3E2E2",
"f@	c #E1E1E1",
"g@	c #7D7D7E",
"h@	c #393833",
"i@	c #515B7B",
"j@	c #3C445B",
"k@	c #363637",
"l@	c #CECECE",
"m@	c #060606",
"n@	c #0B0B0B",
"o@	c #181819",
"p@	c #2F2F2C",
"q@	c #49557B",
"r@	c #4A4F5D",
"s@	c #3A3A37",
"t@	c #AAAAAA",
"u@	c #ABABAB",
"v@	c #3E3E3A",
"w@	c #373838",
"x@	c #303133",
"y@	c #5E5E5E",
"z@	c #393939",
"A@	c #404040",
"B@	c #414142",
"C@	c #434343",
"D@	c #333536",
"E@	c #3C3C39",
"F@	c #3F403D",
"G@	c #D0D0D1",
"H@	c #C3C3C3",
"I@	c #B8B8B8",
"J@	c #D8D9D9",
"K@	c #4D4D4E",
"L@	c #3F403E",
"M@	c #212223",
"N@	c #848485",
"O@	c #FAFAFA",
"P@	c #E8E8E8",
"Q@	c #39393A",
"R@	c #2D2E2F",
"S@	c #424240",
"T@	c #3F4040",
"U@	c #707172",
"V@	c #9F9F9F",
"W@	c #878787",
"X@	c #3A3B3B",
"Y@	c #BDBDBE",
"Z@	c #424241",
"`@	c #B2B2B2",
" #	c #C2C2C2",
".#	c #D7D6D7",
"+#	c #4E4E4F",
"@#	c #414140",
"##	c #383939",
"$#	c #6E6E6E",
"%#	c #6C6D6D",
"&#	c #6B6C6C",
"*#	c #686869",
"=#	c #787878",
"-#	c #4F5050",
";#	c #3E3F40",
">#	c #E8E8E7",
",#	c #9C9C9C",
"'#	c #ADADAE",
")#	c #27282A",
"!#	c #252524",
"~#	c #232322",
"{#	c #1E2021",
"]#	c #3B3C3C",
"^#	c #5E5E5F",
"/#	c #212222",
"(#	c #30302F",
"_#	c #323435",
":#	c #363738",
"<#	c #3E3E3D",
"[#	c #4C4D4E",
"}#	c #E9E9E9",
"|#	c #3B3B3D",
"1#	c #383938",
"2#	c #393F51",
"3#	c #363A47",
"4#	c #2E2F2D",
"5#	c #303132",
"6#	c #27292A",
"7#	c #33353B",
"8#	c #3A4053",
"9#	c #8E8E8F",
"0#	c #3F3E3A",
"a#	c #4B5572",
"b#	c #91A2DC",
"c#	c #494E5C",
"d#	c #363531",
"e#	c #40444C",
"f#	c #7B8CC4",
"g#	c #4F5B7E",
"h#	c #3F3F3A",
"i#	c #404141",
"j#	c #353638",
"k#	c #B1B1B2",
"l#	c #ACACAC",
"m#	c #EAEAE9",
"n#	c #ACACAD",
"o#	c #3B3A35",
"p#	c #5D657A",
"q#	c #97A8DE",
"r#	c #474A56",
"s#	c #4E5260",
"t#	c #9BABDF",
"u#	c #626B8A",
"v#	c #3B3A37",
"w#	c #3C3E40",
"x#	c #626364",
"y#	c #C7C7C8",
"z#	c #E7E6E6",
"A#	c #868687",
"B#	c #525A74",
"C#	c #9BAADA",
"D#	c #B1BEE8",
"E#	c #5C6480",
"F#	c #2F2E30",
"G#	c #343538",
"H#	c #3B3C3E",
"I#	c #585859",
"J#	c #9D9D9E",
"K#	c #A5A5A5",
"L#	c #E6E6E5",
"M#	c #A9AAAA",
"N#	c #7B7C7D",
"O#	c #5D5E5F",
"P#	c #484845",
"Q#	c #69718B",
"R#	c #6C7592",
"S#	c #4A4A48",
"T#	c #D3D2D0",
"U#	c #D2D2D0",
"V#	c #E2E2E2",
"W#	c #D4D4D4",
"X#	c #AEAEAE",
"Y#	c #BCBCBB",
"                            . + + .                             ",
"                    @ # $ % & * = - ; > , '                     ",
"                ) $ ! ~ { ] ^ / ( _ : < ; ! [ }                 ",
"            | 1 2 3 4 5 6 7 8 9 0 a b c d e f g h               ",
"          + i j 4 k l m n o p q r s t u v w x y z $ A           ",
"        @ & B C w D E F G H I J K L M N O P c w Q R S A         ",
"      A T U V W X Y Z c `  ...+.@.#.$.%.&.*.=.P -.;.R >.        ",
"      ,.'.5 W P ).!.~.+.{.].^./././.(._.:.<.).[.P ~.}.z |.      ",
"    1.z 2.~.E ).3.4.5.6.7.8.9.0.0.a.b.c.| d.~.e.[.P -.f.g.h.    ",
"    ; @ ~.X [.i.+.j./.k.l.m.1 1 1 n.> o.% p.q.~.).Y D r.[ s.    ",
"  { & t.W u.v.b w.x.y.z.t.o.o.o.o.o.o.o.o.A.B.+.C.D.E.F.G.g }   ",
"  f H.X X I.J.K.L.M.a.N.O.o.o.s., P.# # { Q.R.S.T.U.V.m W.; X.  ",
"  T Y.-.Z.`. +.+++0.@+#+$+o.%+&+*+=+-+N.;+>+M.6.,+'+)+!+~+{+]+  ",
"^+& Q /+(+_+:+<+y.>+z.[+,.o.}+|+1+2+3+4+;+5+9./.(.6+7+8+9+0+a+  ",
"{ ; b+c+d+e+..f+8.5+g+h+i+o.>.j+k+l+m+n+@+o+p+++w.q+r+s+t+u+! } ",
", v+w+x+y+z+A+B+C+@+D+E+%+o.F+G+H+H+I+J+8.;+K+L+w.M+N+O+P+Q+R+$+",
", S+T+U+V+W+X+/.9.@+Y+Z+o.o.o.o.o.o.o.`+g+ @a.L+w.b .@+@@@#@$@$+",
"%@J+&@*@=@-@;@L.9.>@,@$+o.o.'@)@!@~@{@]@^@@+0.++5./@(@_@:@<@! h.",
") [@}@|@1@2@3@..y.>@@+4@o.5@6@1+1+7@8@9@ @5+9./...0@a@b@c@d@e@' ",
". f@g@~.h@i@j@.+7.>@k@i+o.l@4+m@3+n@9@o@@+K+M.6.p@q@r@s@6 t@J+  ",
"  j u@C.P v@w@x@6.>@y@%+o.P.z@A@A@B@C@y.5+8./.X+D@E@F@D 5 G@H@  ",
"  I@J@K@k A@L@b w.M@N@o.o.F+F+O@F+F+P@Q@>+7.R@+.W S@T@~.U@P@t@  ",
"  V@z W@w E.).X@x@7.Y@o.o.o.o.o.o.o.S ++L+R@+.l !.Z@P c `@%     ",
"     #.#+#C.T@@###b 2.$#%#&#*#=#o. #-#7.w.+.w i.Z@;#w U@>#,     ",
"    ,#& '#k D A@@#X@6.)#!#~#{#]#. ^#/#(#_#:#<#Z@T@C.[#>.j       ",
"      u@}#y ~.|#T@S@L@1#2#3#4#5#6#..7#8#l.e.Z@T@C.V P.! }       ",
"        # P@9#c C.;#[.0#a#b#c#d#d#e#f#g#h#i#E.j#5 k#}#l#        ",
"          I@m#n#C w k E.o#p#q#r#s#t#u#v#w#6 :#x#y#z#{           ",
"            { f@S A#[#W ~.|@B#C#D#E#F#G#H#I#J#z i K#            ",
"              . 1 L#J+M#N#O#P#Q#R#S#2.W@I@& z m.|               ",
"                  } |.J+! & J+T#U#; V#! W#X.'                   ",
"                        @ X## Y#h P.u@V@                        "};
