/* XPM */
static char * C:\EntropyCoin\share\pixmaps\bitcoin16_xpm[] = {
"16 16 166 2",
"  	c None",
". 	c #B8B8B8",
"+ 	c #BBBBBA",
"@ 	c #B6B6B5",
"# 	c #B7B7B6",
"$ 	c #BDBDBD",
"% 	c #B5B5B5",
"& 	c #B7B7B7",
"* 	c #B3B3B3",
"= 	c #797979",
"- 	c #535456",
"; 	c #7B83A2",
"> 	c #6D7388",
", 	c #575656",
"' 	c #888989",
") 	c #BEBEBE",
"! 	c #B0B0B0",
"~ 	c #919191",
"{ 	c #3D3F3F",
"] 	c #323334",
"^ 	c #5D6785",
"/ 	c #54596A",
"( 	c #606782",
"_ 	c #454B62",
": 	c #2E2F2D",
"< 	c #4B4B4C",
"[ 	c #AAAAAB",
"} 	c #919192",
"| 	c #333434",
"1 	c #3B3C3A",
"2 	c #37383B",
"3 	c #2D313A",
"4 	c #1C1C1A",
"5 	c #1A1B1C",
"6 	c #4D515A",
"7 	c #464746",
"8 	c #373837",
"9 	c #3C3D3E",
"0 	c #AFAFAF",
"a 	c #B3B3B4",
"b 	c #3D3E3F",
"c 	c #313233",
"d 	c #222223",
"e 	c #6C6B6A",
"f 	c #A2A2A2",
"g 	c #A4A4A4",
"h 	c #E2E2E0",
"i 	c #969697",
"j 	c #2C2D2D",
"k 	c #383938",
"l 	c #545556",
"m 	c #C2C2C2",
"n 	c #7A797A",
"o 	c #36383A",
"p 	c #272828",
"q 	c #1B1B1B",
"r 	c #D2D2D2",
"s 	c #ECECEB",
"t 	c #6F6F70",
"u 	c #242526",
"v 	c #3B3D3F",
"w 	c #9D9DA0",
"x 	c #58617F",
"y 	c #32353F",
"z 	c #1F1E1E",
"A 	c #282829",
"B 	c #F6F6F6",
"C 	c #000000",
"D 	c #050505",
"E 	c #181819",
"F 	c #272725",
"G 	c #404657",
"H 	c #515971",
"I 	c #717170",
"J 	c #BCBCBC",
"K 	c #7E87A3",
"L 	c #555B6D",
"M 	c #282828",
"N 	c #454546",
"O 	c #FFFFFF",
"P 	c #DEDEDE",
"Q 	c #C8C8C8",
"R 	c #B1B1B1",
"S 	c #212122",
"T 	c #232425",
"U 	c #2D2D2C",
"V 	c #676F88",
"W 	c #888FA3",
"X 	c #BBBBB9",
"Y 	c #B8B7B6",
"Z 	c #697084",
"` 	c #5E6680",
" .	c #2D2D2F",
"..	c #141415",
"+.	c #727272",
"@.	c #FDFDFD",
"#.	c #8B8B8B",
"$.	c #818181",
"%.	c #707070",
"&.	c #1B1B1C",
"*.	c #252525",
"=.	c #373A3E",
"-.	c #656E8C",
";.	c #797D8A",
">.	c #BDBDBB",
",.	c #575755",
"'.	c #4E5569",
").	c #363A44",
"!.	c #181818",
"~.	c #A6A6A7",
"{.	c #E2E2E2",
"].	c #020202",
"^.	c #0B0B0B",
"/.	c #202021",
"(.	c #43495A",
"_.	c #454A57",
":.	c #787876",
"<.	c #BBBBBB",
"[.	c #B5B5B4",
"}.	c #313130",
"|.	c #363737",
"1.	c #28282A",
"2.	c #D6D6D6",
"3.	c #FBFBFB",
"4.	c #C6C6C6",
"5.	c #6D6D6E",
"6.	c #1E1E1F",
"7.	c #2F3132",
"8.	c #3B3B3A",
"9.	c #353635",
"0.	c #AAABAB",
"a.	c #4A4B4C",
"b.	c #383939",
"c.	c #393A3A",
"d.	c #797A7A",
"e.	c #82817F",
"f.	c #A1A1A1",
"g.	c #D7D7D7",
"h.	c #4B4B49",
"i.	c #2A2B2C",
"j.	c #3A3B3B",
"k.	c #363736",
"l.	c #676869",
"m.	c #C5C5C5",
"n.	c #353A4B",
"o.	c #3B3B3C",
"p.	c #3A3F4F",
"q.	c #3C3D3D",
"r.	c #363636",
"s.	c #4E4F50",
"t.	c #C0C1C1",
"u.	c #B6B6B6",
"v.	c #555556",
"w.	c #333432",
"x.	c #51586E",
"y.	c #5F6882",
"z.	c #626A86",
"A.	c #495066",
"B.	c #363635",
"C.	c #C0C0C1",
"D.	c #9D9E9E",
"E.	c #706F6D",
"F.	c #858B9F",
"G.	c #858B9C",
"H.	c #AAAAAA",
"I.	c #BCBBBA",
"          . + @ # $ %           ",
"      & * = - ; > , ' ) !       ",
"    $ ~ { ] ^ / ( _ : < [ &     ",
"  & } | 1 2 3 4 5 6 7 8 9 0     ",
"  a b 1 c d e f g h i j k l m   ",
". n | o p q r s 0 0 t u v | w   ",
"+ l x y z A B = C D E F G H I J ",
"% K L M E N O P Q R S T U V W X ",
"Y Z `  ...+.@.#.$.%.&.*.=.-.;.>.",
"$ ,.'.).!.~.{.].C ^./.M (._.:.<.",
"[.' }.|.1.2.3.4.4.5.6.7.8.9.0.  ",
"  ) a.b.c.d.e.f.g.h.i.j.k.l.m.  ",
"  ! [ 9 k 7.n.j o.p.q.r.s.t.    ",
"    u.0 v.w.x.y.z.A.B.l.C.      ",
"        m D.E.F.G.:.H.m.        ",
"            J I.I.<.            "};
